{
  "accessors": [
    {
      "bufferView": 2,
      "componentType": 5126,
      "count": 1552,
      "max": [
        7.699999809265137,
        3.9600000381469727,
        34.72200012207031
      ],
      "min": [
        -7.699999809265137,
        -3.9600000381469727,
        16.020000457763672
      ],
      "type": "VEC3"
    },
    {
      "bufferView": 2,
      "byteOffset": 18624,
      "componentType": 5126,
      "count": 1552,
      "max": [
        1.0,
        1.0,
        1.0
      ],
      "min": [
        -1.0,
        -1.0,
        -1.0
      ],
      "type": "VEC3"
    },
    {
      "bufferView": 1,
      "componentType": 5126,
      "count": 1552,
      "max": [
        0.9800000190734863,
        0.9269999861717224
      ],
      "min": [
        0.0,
        0.0
      ],
      "type": "VEC2"
    },
    {
      "bufferView": 0,
      "componentType": 5125,
      "count": 5424,
      "type": "SCALAR"
    },
    {
      "bufferView": 2,
      "byteOffset": 37248,
      "componentType": 5126,
      "count": 410,
      "max": [
        -0.5,
        3.5999999046325684,
        14.800000190734863
      ],
      "min": [
        -7.699999809265137,
        -4.360000133514404,
        0.019999999552965164
      ],
      "type": "VEC3"
    },
    {
      "bufferView": 2,
      "byteOffset": 42168,
      "componentType": 5126,
      "count": 410,
      "max": [
        1.0,
        1.0,
        1.0
      ],
      "min": [
        -1.0,
        -1.0,
        -1.0
      ],
      "type": "VEC3"
    },
    {
      "bufferView": 1,
      "byteOffset": 12416,
      "componentType": 5126,
      "count": 410,
      "max": [
        1.0,
        1.0
      ],
      "min": [
        0.008999999612569809,
        0.01600000075995922
      ],
      "type": "VEC2"
    },
    {
      "bufferView": 0,
      "byteOffset": 21696,
      "componentType": 5125,
      "count": 1152,
      "type": "SCALAR"
    },
    {
      "bufferView": 2,
      "byteOffset": 47088,
      "componentType": 5126,
      "count": 410,
      "max": [
        7.699999809265137,
        3.5999999046325684,
        14.800000190734863
      ],
      "min": [
        0.5,
        -4.360000133514404,
        0.019999999552965164
      ],
      "type": "VEC3"
    },
    {
      "bufferView": 2,
      "byteOffset": 52008,
      "componentType": 5126,
      "count": 410,
      "max": [
        1.0,
        1.0,
        1.0
      ],
      "min": [
        -1.0,
        -1.0,
        -1.0
      ],
      "type": "VEC3"
    },
    {
      "bufferView": 1,
      "byteOffset": 15696,
      "componentType": 5126,
      "count": 410,
      "max": [
        1.0,
        1.0
      ],
      "min": [
        0.00800000037997961,
        0.01600000075995922
      ],
      "type": "VEC2"
    },
    {
      "bufferView": 0,
      "byteOffset": 26304,
      "componentType": 5125,
      "count": 1152,
      "type": "SCALAR"
    },
    {
      "bufferView": 2,
      "byteOffset": 56928,
      "componentType": 5126,
      "count": 1140,
      "max": [
        5.099999904632568,
        5.099999904632568,
        40.400001525878906
      ],
      "min": [
        -5.099999904632568,
        -5.099999904632568,
        28.81999969482422
      ],
      "type": "VEC3"
    },
    {
      "bufferView": 2,
      "byteOffset": 70608,
      "componentType": 5126,
      "count": 1140,
      "max": [
        0.9990761876106262,
        0.9990761876106262,
        1.0
      ],
      "min": [
        -0.9990761876106262,
        -0.9990761876106262,
        -1.0
      ],
      "type": "VEC3"
    },
    {
      "bufferView": 1,
      "byteOffset": 18976,
      "componentType": 5126,
      "count": 1140,
      "max": [
        0.9879999756813049,
        0.9179999828338623
      ],
      "min": [
        3.9999998989515007e-05,
        5.999999848427251e-05
      ],
      "type": "VEC2"
    },
    {
      "bufferView": 0,
      "byteOffset": 30912,
      "componentType": 5125,
      "count": 4122,
      "type": "SCALAR"
    },
    {
      "bufferView": 2,
      "byteOffset": 84288,
      "componentType": 5126,
      "count": 676,
      "max": [
        6.978000164031982,
        1.6469999551773071,
        40.823001861572266
      ],
      "min": [
        -6.978000164031982,
        -8.08899974822998,
        31.652999877929688
      ],
      "type": "VEC3"
    },
    {
      "bufferView": 2,
      "byteOffset": 92400,
      "componentType": 5126,
      "count": 676,
      "max": [
        0.9999999403953552,
        1.0,
        0.8766968846321106
      ],
      "min": [
        -0.9999999403953552,
        -0.9999046921730042,
        -0.9830541610717773
      ],
      "type": "VEC3"
    },
    {
      "bufferView": 0,
      "byteOffset": 47400,
      "componentType": 5125,
      "count": 3168,
      "type": "SCALAR"
    },
    {
      "bufferView": 2,
      "byteOffset": 100512,
      "componentType": 5126,
      "count": 1648,
      "max": [
        17.014999389648438,
        3.9600000381469727,
        20.799999237060547
      ],
      "min": [
        -9.107000350952148,
        -15.512999534606934,
        -1.1799999475479126
      ],
      "type": "VEC3"
    },
    {
      "bufferView": 2,
      "byteOffset": 120288,
      "componentType": 5126,
      "count": 1648,
      "max": [
        1.0,
        1.0,
        1.0
      ],
      "min": [
        -1.0,
        -1.0,
        -1.0
      ],
      "type": "VEC3"
    },
    {
      "bufferView": 0,
      "byteOffset": 60072,
      "componentType": 5125,
      "count": 7020,
      "type": "SCALAR"
    },
    {
      "bufferView": 2,
      "byteOffset": 140064,
      "componentType": 5126,
      "count": 1038,
      "max": [
        12.720999717712402,
        1.5299999713897705,
        22.28700065612793
      ],
      "min": [
        -12.720999717712402,
        -8.553999900817871,
        12.741999626159668
      ],
      "type": "VEC3"
    },
    {
      "bufferView": 2,
      "byteOffset": 152520,
      "componentType": 5126,
      "count": 1038,
      "max": [
        0.9948285818099976,
        0.9990859031677246,
        0.9983335733413696
      ],
      "min": [
        -0.9948285818099976,
        -0.9919527769088745,
        -0.9823728203773499
      ],
      "type": "VEC3"
    },
    {
      "bufferView": 0,
      "byteOffset": 88152,
      "componentType": 5125,
      "count": 3780,
      "type": "SCALAR"
    },
    {
      "bufferView": 2,
      "byteOffset": 164976,
      "componentType": 5126,
      "count": 1346,
      "max": [
        11.567000389099121,
        2.6470000743865967,
        27.66900062561035
      ],
      "min": [
        -11.567000389099121,
        -4.525000095367432,
        16.261999130249023
      ],
      "type": "VEC3"
    },
    {
      "bufferView": 2,
      "byteOffset": 181128,
      "componentType": 5126,
      "count": 1346,
      "max": [
        0.9906724691390991,
        0.9997314214706421,
        0.9997923374176025
      ],
      "min": [
        -0.9906725883483887,
        -0.9998061060905457,
        -0.9997162222862244
      ],
      "type": "VEC3"
    },
    {
      "bufferView": 0,
      "byteOffset": 103272,
      "componentType": 5125,
      "count": 5712,
      "type": "SCALAR"
    },
    {
      "bufferView": 2,
      "byteOffset": 197280,
      "componentType": 5126,
      "count": 11267,
      "max": [
        13.588000297546387,
        10.399999618530273,
        34.06100082397461
      ],
      "min": [
        -9.600000381469727,
        -9.600000381469727,
        5.420000076293945
      ],
      "type": "VEC3"
    },
    {
      "bufferView": 2,
      "byteOffset": 332484,
      "componentType": 5126,
      "count": 11267,
      "max": [
        1.0,
        1.0,
        1.0
      ],
      "min": [
        -1.0,
        -1.0,
        -1.0
      ],
      "type": "VEC3"
    },
    {
      "bufferView": 0,
      "byteOffset": 126120,
      "componentType": 5125,
      "count": 53934,
      "type": "SCALAR"
    },
    {
      "bufferView": 2,
      "byteOffset": 467688,
      "componentType": 5126,
      "count": 2889,
      "max": [
        6.383999824523926,
        8.57800006866455,
        41.77899932861328
      ],
      "min": [
        -10.152999877929688,
        -6.3379998207092285,
        3.944999933242798
      ],
      "type": "VEC3"
    },
    {
      "bufferView": 2,
      "byteOffset": 502356,
      "componentType": 5126,
      "count": 2889,
      "max": [
        1.0,
        1.0,
        1.0
      ],
      "min": [
        -1.0,
        -1.0,
        -1.0
      ],
      "type": "VEC3"
    },
    {
      "bufferView": 0,
      "byteOffset": 341856,
      "componentType": 5125,
      "count": 11076,
      "type": "SCALAR"
    }
  ],
  "asset": {
    "extras": {
      "author": "Warfare (https://sketchfab.com/167487)",
      "license": "CC-BY-4.0 (http://creativecommons.org/licenses/by/4.0/)",
      "source": "https://sketchfab.com/3d-models/lego-diver-moc-83c2d6709b144413b6b94b7b6b2d1a8d",
      "title": "Lego Diver (MOC)"
    },
    "generator": "Sketchfab-14.64.0",
    "version": "2.0"
  },
  "bufferViews": [
    {
      "buffer": 0,
      "byteLength": 386160,
      "name": "floatBufferViews",
      "target": 34963
    },
    {
      "buffer": 0,
      "byteLength": 28096,
      "byteOffset": 386160,
      "byteStride": 8,
      "name": "floatBufferViews",
      "target": 34962
    },
    {
      "buffer": 0,
      "byteLength": 537024,
      "byteOffset": 414256,
      "byteStride": 12,
      "name": "floatBufferViews",
      "target": 34962
    }
  ],
  "buffers": [
    {
      "byteLength": 951280,
      "uri": "scene.bin"
    }
  ],
  "images": [
    {
      "uri": "textures/MB_140_official_5555_baseColor.png"
    },
    {
      "uri": "textures/MB_21_official_5567_baseColor.png"
    },
    {
      "uri": "textures/MB_21_official_5568_baseColor.png"
    },
    {
      "uri": "textures/MB_24_official_855_baseColor.png"
    }
  ],
  "materials": [
    {
      "doubleSided": true,
      "name": "MB_140",
      "pbrMetallicRoughness": {
        "baseColorFactor": [
          0.0030352700000000005,
          0.017642000000000005,
          0.05286059999999998,
          1.0
        ],
        "metallicFactor": 0.0,
        "roughnessFactor": 0.0
      }
    },
    {
      "doubleSided": true,
      "name": "MB_140_official_5555",
      "pbrMetallicRoughness": {
        "baseColorTexture": {
          "index": 0
        },
        "metallicFactor": 0.0,
        "roughnessFactor": 0.0
      }
    },
    {
      "doubleSided": true,
      "name": "MB_194",
      "pbrMetallicRoughness": {
        "baseColorFactor": [
          0.366253,
          0.361307,
          0.371238,
          1.0
        ],
        "metallicFactor": 0.0,
        "roughnessFactor": 0.0
      }
    },
    {
      "doubleSided": true,
      "name": "MB_21",
      "pbrMetallicRoughness": {
        "baseColorFactor": [
          0.6724429999999999,
          0.0,
          0.012983000000000066,
          1.0
        ],
        "metallicFactor": 0.0,
        "roughnessFactor": 0.0
      }
    },
    {
      "doubleSided": true,
      "name": "MB_21_official_5567",
      "pbrMetallicRoughness": {
        "baseColorTexture": {
          "index": 1
        },
        "metallicFactor": 0.0,
        "roughnessFactor": 0.0
      }
    },
    {
      "doubleSided": true,
      "name": "MB_21_official_5568",
      "pbrMetallicRoughness": {
        "baseColorTexture": {
          "index": 2
        },
        "metallicFactor": 0.0,
        "roughnessFactor": 0.0
      }
    },
    {
      "doubleSided": true,
      "name": "MB_24_official_855",
      "pbrMetallicRoughness": {
        "baseColorTexture": {
          "index": 3
        },
        "metallicFactor": 0.0,
        "roughnessFactor": 0.0
      }
    },
    {
      "doubleSided": true,
      "name": "MB_26",
      "pbrMetallicRoughness": {
        "baseColorFactor": [
          0.00518152,
          0.00518152,
          0.00518152,
          1.0
        ],
        "metallicFactor": 0.0,
        "roughnessFactor": 0.0
      }
    },
    {
      "alphaMode": "BLEND",
      "doubleSided": true,
      "name": "MB_40",
      "pbrMetallicRoughness": {
        "baseColorFactor": [
          0.854993,
          0.854993,
          0.854993,
          0.4
        ],
        "metallicFactor": 0.0,
        "roughnessFactor": 0.0
      }
    }
  ],
  "meshes": [
    {
      "name": "Object_0",
      "primitives": [
        {
          "attributes": {
            "NORMAL": 1,
            "POSITION": 0,
            "TEXCOORD_0": 2
          },
          "indices": 3,
          "material": 1,
          "mode": 4
        }
      ]
    },
    {
      "name": "Object_1",
      "primitives": [
        {
          "attributes": {
            "NORMAL": 5,
            "POSITION": 4,
            "TEXCOORD_0": 6
          },
          "indices": 7,
          "material": 4,
          "mode": 4
        }
      ]
    },
    {
      "name": "Object_2",
      "primitives": [
        {
          "attributes": {
            "NORMAL": 9,
            "POSITION": 8,
            "TEXCOORD_0": 10
          },
          "indices": 11,
          "material": 5,
          "mode": 4
        }
      ]
    },
    {
      "name": "Object_3",
      "primitives": [
        {
          "attributes": {
            "NORMAL": 13,
            "POSITION": 12,
            "TEXCOORD_0": 14
          },
          "indices": 15,
          "material": 6,
          "mode": 4
        }
      ]
    },
    {
      "name": "Object_4",
      "primitives": [
        {
          "attributes": {
            "NORMAL": 17,
            "POSITION": 16
          },
          "indices": 18,
          "material": 8,
          "mode": 4
        }
      ]
    },
    {
      "name": "Object_5",
      "primitives": [
        {
          "attributes": {
            "NORMAL": 20,
            "POSITION": 19
          },
          "indices": 21,
          "material": 0,
          "mode": 4
        }
      ]
    },
    {
      "name": "Object_6",
      "primitives": [
        {
          "attributes": {
            "NORMAL": 23,
            "POSITION": 22
          },
          "indices": 24,
          "material": 2,
          "mode": 4
        }
      ]
    },
    {
      "name": "Object_7",
      "primitives": [
        {
          "attributes": {
            "NORMAL": 26,
            "POSITION": 25
          },
          "indices": 27,
          "material": 3,
          "mode": 4
        }
      ]
    },
    {
      "name": "Object_8",
      "primitives": [
        {
          "attributes": {
            "NORMAL": 29,
            "POSITION": 28
          },
          "indices": 30,
          "material": 7,
          "mode": 4
        }
      ]
    },
    {
      "name": "Object_9",
      "primitives": [
        {
          "attributes": {
            "NORMAL": 32,
            "POSITION": 31
          },
          "indices": 33,
          "material": 7,
          "mode": 4
        }
      ]
    }
  ],
  "nodes": [
    {
      "children": [
        1
      ],
      "matrix": [
        1.0,
        0.0,
        0.0,
        0.0,
        0.0,
        2.220446049250313e-16,
        -1.0,
        0.0,
        0.0,
        1.0,
        2.220446049250313e-16,
        0.0,
        0.0,
        0.0,
        0.0,
        1.0
      ],
      "name": "Sketchfab_model"
    },
    {
      "children": [
        2,
        3,
        4,
        5,
        6,
        7,
        8,
        9,
        10,
        11
      ],
      "name": "Untitled Model.obj.cleaner.materialmerger.gles"
    },
    {
      "mesh": 0,
      "name": "Object_2"
    },
    {
      "mesh": 1,
      "name": "Object_3"
    },
    {
      "mesh": 2,
      "name": "Object_4"
    },
    {
      "mesh": 3,
      "name": "Object_5"
    },
    {
      "mesh": 4,
      "name": "Object_6"
    },
    {
      "mesh": 5,
      "name": "Object_7"
    },
    {
      "mesh": 6,
      "name": "Object_8"
    },
    {
      "mesh": 7,
      "name": "Object_9"
    },
    {
      "mesh": 8,
      "name": "Object_10"
    },
    {
      "mesh": 9,
      "name": "Object_11"
    }
  ],
  "samplers": [
    {
      "magFilter": 9729,
      "minFilter": 9987,
      "wrapS": 10497,
      "wrapT": 10497
    }
  ],
  "scene": 0,
  "scenes": [
    {
      "name": "Sketchfab_Scene",
      "nodes": [
        0
      ]
    }
  ],
  "textures": [
    {
      "sampler": 0,
      "source": 0
    },
    {
      "sampler": 0,
      "source": 1
    },
    {
      "sampler": 0,
      "source": 2
    },
    {
      "sampler": 0,
      "source": 3
    }
  ]
}
